<svg width="977" height="485" viewBox="0 0 977 485" fill="none" xmlns="http://www.w3.org/2000/svg">
<path d="M237.5 155.5H328C352.577 155.5 372.5 175.423 372.5 200V290.5H282C257.423 290.5 237.5 270.577 237.5 246V155.5Z" stroke="url(#paint0_linear)" stroke-width="39"/>
<path d="M145.5 63.5H301C342.145 63.5 375.5 96.8548 375.5 138V293.5H220C178.855 293.5 145.5 260.145 145.5 219V63.5Z" stroke="#3D3C3C" stroke-width="51"/>
<path d="M457.039 384.202C457.039 383.537 457.039 382.872 457.039 382.207C456.773 377.685 456.64 372.631 455.044 368.508C453.315 363.853 449.325 360.661 444.005 359.597C437.887 358.4 432.966 358.932 428.976 361.193C424.986 363.454 422.193 367.577 421.262 372.365C421.262 372.764 421.129 373.03 421.129 373.429C420.996 373.961 420.863 374.493 420.73 375.158V375.291C420.73 375.424 420.73 375.557 420.73 375.69L420.331 377.951C420.065 379.148 420.996 380.212 422.193 380.212H425.651C425.917 380.212 426.183 380.212 426.316 380.212H426.449C426.981 380.212 427.646 380.212 428.311 380.212C428.311 380.212 433.232 380.611 433.631 379.813C433.897 379.414 433.897 376.222 434.03 375.823C434.03 375.424 434.163 375.025 434.296 374.759C434.296 374.759 434.296 374.626 434.429 374.493C434.828 373.695 436.291 373.163 437.355 373.03C438.552 372.897 440.547 373.163 441.345 374.227C442.143 375.158 442.143 376.621 442.276 378.35C442.409 378.882 442.409 380.079 442.409 381.143C439.882 381.808 435.626 382.872 433.764 383.404C431.104 384.202 427.247 385.532 424.587 387.926C421.262 391.251 420.065 395.906 419.533 398.3C418.602 404.019 419.533 409.605 422.193 413.462C424.72 417.186 428.843 419.314 433.764 419.447C433.897 419.447 434.03 419.447 434.296 419.447C436.557 419.447 442.941 419.447 444.67 411.999C445.601 413.063 444.537 418.915 448.66 418.649C449.591 418.516 450.522 418.649 451.32 418.516H451.719C454.379 418.516 456.507 418.782 456.773 416.122C456.906 414.925 456.906 411.866 456.906 410.935V410.27C456.906 408.94 456.906 406.28 456.906 403.088C457.039 396.039 457.305 387.261 457.039 384.202ZM442.941 394.709C442.941 394.842 442.941 398.433 442.941 398.433C442.941 398.566 442.941 398.832 442.941 399.098C442.941 399.63 442.941 400.428 442.941 400.827C442.808 402.423 441.611 403.354 441.079 403.886C439.882 404.817 438.286 405.349 436.823 405.216C435.892 405.083 434.961 404.684 434.562 403.886C432.7 401.359 433.365 394.975 438.153 393.645C438.951 393.512 440.414 392.847 441.345 392.714L441.744 392.581C442.276 392.581 442.675 392.448 442.941 392.448C442.941 392.714 442.941 393.113 442.941 393.645V394.709ZM519.611 387.926C519.611 383.404 519.611 379.015 519.611 377.286C519.744 373.695 518.547 370.636 517.749 368.508C516.419 364.917 513.493 362.124 509.636 360.395C505.513 358.666 502.72 358.666 498.331 359.597C494.873 360.395 493.144 364.385 493.144 365.582C493.144 365.449 493.144 365.449 493.144 365.449C492.346 363.986 491.814 359.863 490.085 359.863H488.489C487.691 359.863 482.371 359.863 481.307 359.863C480.908 359.863 481.174 364.252 481.44 366.114C482.238 372.498 482.105 378.882 481.839 385.665C481.839 386.862 481.839 388.059 481.839 389.389C481.839 390.586 481.706 400.029 481.706 410.004C481.573 420.91 481.573 437.136 481.44 438.599C481.44 439.53 481.44 440.328 481.44 441.259C481.307 443.121 481.307 445.116 481.307 446.978C481.307 449.106 480.642 451.899 482.371 451.899C482.504 451.899 489.952 451.899 490.351 451.899C493.277 451.633 495.405 452.564 495.405 451.101C495.405 449.505 495.538 443.653 495.671 442.323C495.671 440.062 495.538 437.934 495.538 435.141C495.538 432.481 495.671 425.831 495.671 423.171C495.671 421.708 495.671 417.585 495.671 416.122C497.533 418.915 503.651 419.979 507.375 419.181C515.887 417.186 518.547 411.467 518.946 403.088C519.079 400.561 519.744 394.044 519.611 387.926ZM505.247 399.098C505.247 400.694 504.981 402.024 504.715 403.221C504.449 404.019 503.917 405.216 502.853 405.748C501.922 406.28 500.725 406.014 499.927 405.748C498.198 405.216 497.001 404.019 496.469 402.29C496.07 400.694 495.671 391.916 495.671 387.66C495.671 383.537 495.937 379.547 496.469 376.089C496.602 374.759 497.267 373.961 498.198 373.296C499.927 372.232 502.055 371.833 503.651 373.03C504.316 373.429 504.715 373.961 504.981 374.626C506.577 377.818 505.38 394.576 505.247 399.098ZM581.618 387.926C581.618 383.404 581.618 379.015 581.618 377.286C581.751 373.695 580.554 370.636 579.756 368.508C578.426 364.917 575.5 362.124 571.643 360.395C567.52 358.666 564.727 358.666 560.338 359.597C556.88 360.395 555.151 364.385 555.151 365.582C555.151 365.449 555.151 365.449 555.151 365.449C554.353 363.986 553.821 359.863 552.092 359.863H550.496C549.698 359.863 544.378 359.863 543.314 359.863C542.915 359.863 543.181 364.252 543.447 366.114C544.245 372.498 544.112 378.882 543.846 385.665C543.846 386.862 543.846 388.059 543.846 389.389C543.846 390.586 543.713 400.029 543.713 410.004C543.58 420.91 543.58 437.136 543.447 438.599C543.447 439.53 543.447 440.328 543.447 441.259C543.314 443.121 543.314 445.116 543.314 446.978C543.314 449.106 542.649 451.899 544.378 451.899C544.511 451.899 551.959 451.899 552.358 451.899C555.284 451.633 557.412 452.564 557.412 451.101C557.412 449.505 557.545 443.653 557.678 442.323C557.678 440.062 557.545 437.934 557.545 435.141C557.545 432.481 557.678 425.831 557.678 423.171C557.678 421.708 557.678 417.585 557.678 416.122C559.54 418.915 565.658 419.979 569.382 419.181C577.894 417.186 580.554 411.467 580.953 403.088C581.086 400.561 581.751 394.044 581.618 387.926ZM567.254 399.098C567.254 400.694 566.988 402.024 566.722 403.221C566.456 404.019 565.924 405.216 564.86 405.748C563.929 406.28 562.732 406.014 561.934 405.748C560.205 405.216 559.008 404.019 558.476 402.29C558.077 400.694 557.678 391.916 557.678 387.66C557.678 383.537 557.944 379.547 558.476 376.089C558.609 374.759 559.274 373.961 560.205 373.296C561.934 372.232 564.062 371.833 565.658 373.03C566.323 373.429 566.722 373.961 566.988 374.626C568.584 377.818 567.387 394.576 567.254 399.098ZM620.349 366.646C620.349 353.612 620.216 332.864 620.216 328.076C620.216 324.884 617.024 325.682 614.231 325.549C613.965 325.549 609.044 325.549 608.778 325.549C605.719 325.682 605.453 326.081 605.453 328.874C605.32 329.406 605.586 416.521 605.586 417.984C605.586 418.649 607.182 418.649 608.379 418.516H616.359C618.487 418.516 620.083 418.782 620.083 417.718C620.083 416.654 620.216 412.93 620.216 411.999C620.216 411.334 620.083 410.669 620.216 410.27C620.216 409.605 620.349 366.646 620.349 366.646ZM672.916 397.768C670.256 397.768 668.793 397.901 668.793 399.63C668.793 401.093 668.926 405.615 663.739 405.615C661.877 405.615 660.015 405.083 659.084 403.354C658.552 402.024 658.286 400.428 658.153 398.965C658.02 398.566 658.02 398.034 658.02 397.635C657.754 396.571 658.02 393.911 658.153 392.98C659.749 392.98 661.744 392.98 663.473 392.98C664.537 392.98 665.335 392.98 666.266 392.98C666.931 392.98 667.596 392.98 668.394 392.98C670.389 392.98 676.108 392.98 678.236 392.98C679.433 392.98 680.763 392.98 680.763 386.862C680.763 383.271 680.763 381.409 680.63 377.818C680.497 374.493 680.231 370.902 678.103 367.444C676.108 364.119 672.65 361.459 668.527 359.996C662.143 357.868 655.094 359.065 650.572 363.055C646.05 367.045 643.922 373.03 644.188 381.675C644.188 383.404 644.055 385.399 644.055 387.66C643.656 398.3 642.991 412.93 655.626 417.984C658.153 418.915 660.68 419.447 663.34 419.447C665.867 419.447 668.261 419.048 670.788 418.117C676.64 415.856 679.832 413.196 681.029 401.492C681.428 398.566 681.295 397.768 672.916 397.768ZM658.419 374.227C658.685 373.03 659.749 372.232 661.079 371.833C662.675 371.301 664.271 371.567 665.335 372.498C666.665 373.695 667.197 377.02 667.197 378.749C667.33 379.414 667.33 380.478 667.197 381.409C667.064 381.409 666.798 381.409 666.532 381.409H666.399C664.936 381.276 659.749 381.276 658.153 381.409V381.01C658.153 379.547 658.02 375.291 658.419 374.227ZM741.767 386.33C741.767 385.399 741.767 384.335 741.767 383.271C741.767 377.818 741.767 372.631 741.767 367.311V367.178V361.592C741.767 359.464 740.304 359.996 736.447 359.996C730.595 359.996 727.536 359.597 727.536 361.326C727.536 362.257 727.403 364.784 727.403 366.38C727.403 366.513 727.403 366.513 727.403 366.646C727.403 366.779 727.403 367.045 727.403 367.178C727.403 367.178 727.403 367.311 727.403 367.444C727.403 373.695 727.403 379.813 727.403 386.197L727.536 391.384C727.536 392.315 727.536 393.246 727.536 394.177C727.536 395.773 727.536 397.502 727.536 399.231C727.536 401.492 726.472 404.817 723.812 405.083C720.62 405.349 718.359 402.822 717.827 399.763C717.561 398.433 717.827 396.97 717.827 395.507C717.827 390.719 717.96 385.931 717.96 381.143C717.96 376.621 717.694 371.966 717.96 367.577L718.226 361.592C718.226 359.464 717.162 359.996 713.305 359.996C707.32 359.996 704.261 359.597 704.261 361.326C704.261 362.257 704.261 364.917 704.261 366.38C704.128 371.833 704.128 375.557 704.128 378.882C704.261 381.941 704.128 385 704.128 387.926C703.995 393.379 703.995 398.832 704.394 404.418C704.66 409.871 707.32 414.127 711.975 417.319C713.571 418.383 715.566 419.048 717.561 419.314C718.625 419.447 719.556 419.447 720.487 419.447C723.147 419.447 725.94 417.718 727.935 415.59C728.334 415.058 729.398 415.058 729.531 415.856C730.196 417.984 730.063 418.516 731.127 418.516H737.644H737.91C740.437 418.516 741.368 418.915 741.368 417.718C741.368 416.388 741.767 411.866 741.767 410.669C741.767 405.349 741.767 400.029 741.767 394.709V386.33ZM794.596 359.996C793.399 359.996 787.946 359.996 786.882 359.996C786.616 359.996 786.35 359.996 786.084 359.996C786.084 357.336 785.951 346.829 785.951 346.031C786.084 343.371 785.818 342.041 784.488 342.44C784.089 342.573 774.38 347.494 773.981 347.627C771.986 348.558 772.252 348.558 772.119 352.415C772.119 352.947 772.119 353.479 772.119 354.011C772.119 355.74 772.119 357.336 772.119 359.065C772.119 359.331 771.986 359.597 771.986 359.863C771.853 359.863 771.72 359.863 771.587 359.863C770.39 359.863 766.666 359.863 765.602 359.996H765.469C762.543 360.129 762.942 360.661 762.942 361.991C762.942 364.385 762.277 373.03 763.607 373.03C764.006 373.03 770.789 373.03 771.188 373.03H771.321C771.454 373.03 771.72 373.03 771.853 373.03C771.853 373.163 771.986 373.429 771.986 373.695C771.72 379.813 771.72 392.98 771.853 411.999V416.92C771.853 419.181 773.316 418.516 777.173 418.516C783.025 418.516 786.084 418.915 786.084 417.319C786.084 413.595 786.217 404.684 786.217 400.162C786.217 396.039 786.217 391.783 786.217 387.66C786.084 383.803 786.084 379.946 786.084 376.089C786.084 375.158 786.084 374.227 786.217 373.163C786.882 373.163 787.68 373.163 788.478 373.163C789.143 373.163 793.399 373.163 794.197 373.163C795.66 373.163 795.261 367.178 795.261 366.912C795.128 365.848 795.793 359.996 794.596 359.996ZM843.997 397.768C841.337 397.768 839.874 397.901 839.874 399.63C839.874 401.093 840.007 405.615 834.82 405.615C832.958 405.615 831.096 405.083 830.165 403.354C829.633 402.024 829.367 400.428 829.234 398.965C829.101 398.566 829.101 398.034 829.101 397.635C828.835 396.571 829.101 393.911 829.234 392.98C830.83 392.98 832.825 392.98 834.554 392.98C835.618 392.98 836.416 392.98 837.347 392.98C838.012 392.98 838.677 392.98 839.475 392.98C841.47 392.98 847.189 392.98 849.317 392.98C850.514 392.98 851.844 392.98 851.844 386.862C851.844 383.271 851.844 381.409 851.711 377.818C851.578 374.493 851.312 370.902 849.184 367.444C847.189 364.119 843.731 361.459 839.608 359.996C833.224 357.868 826.175 359.065 821.653 363.055C817.131 367.045 815.003 373.03 815.269 381.675C815.269 383.404 815.136 385.399 815.136 387.66C814.737 398.3 814.072 412.93 826.707 417.984C829.234 418.915 831.761 419.447 834.421 419.447C836.948 419.447 839.342 419.048 841.869 418.117C847.721 415.856 850.913 413.196 852.11 401.492C852.509 398.566 852.376 397.768 843.997 397.768ZM829.5 374.227C829.766 373.03 830.83 372.232 832.16 371.833C833.756 371.301 835.352 371.567 836.416 372.498C837.746 373.695 838.278 377.02 838.278 378.749C838.411 379.414 838.411 380.478 838.278 381.409C838.145 381.409 837.879 381.409 837.613 381.409H837.48C836.017 381.276 830.83 381.276 829.234 381.409V381.01C829.234 379.547 829.101 375.291 829.5 374.227Z" fill="#3D3C3C"/>
<defs>
<linearGradient id="paint0_linear" x1="246" y1="164.5" x2="331.5" y2="249" gradientUnits="userSpaceOnUse">
<stop stop-color="#FF7052"/>
<stop offset="1" stop-color="#FB1717"/>
</linearGradient>
</defs>
</svg>
